<mxfile host="app.diagrams.net" modified="2021-01-17T13:05:45.525Z" agent="5.0 (Windows NT 10.0; Win64; x64) AppleWebKit/537.36 (KHTML, like Gecko) Chrome/87.0.4280.141 Safari/537.36 Edg/87.0.664.75" etag="fwBley6MFs8LiWqd8XN1" version="14.2.4" type="github" pages="2">
  <diagram id="dxBoUns8JQVzKCoEkRDe" name="deployment diagram">
    <mxGraphModel dx="1917" dy="646" grid="1" gridSize="10" guides="1" tooltips="1" connect="1" arrows="1" fold="1" page="1" pageScale="1" pageWidth="827" pageHeight="1169" math="0" shadow="0">
      <root>
        <mxCell id="0" />
        <mxCell id="1" parent="0" />
        <mxCell id="_Fsv1PaaSxjBME8YJHm2-3" value="" style="rounded=1;whiteSpace=wrap;html=1;" parent="1" vertex="1">
          <mxGeometry x="175" y="70" width="760" height="340" as="geometry" />
        </mxCell>
        <mxCell id="_Fsv1PaaSxjBME8YJHm2-4" value="Client" style="rounded=0;whiteSpace=wrap;html=1;" parent="1" vertex="1">
          <mxGeometry x="-29" y="165" width="120" height="60" as="geometry" />
        </mxCell>
        <mxCell id="_Fsv1PaaSxjBME8YJHm2-5" value="db" style="shape=cylinder;whiteSpace=wrap;html=1;boundedLbl=1;backgroundOutline=1;" parent="1" vertex="1">
          <mxGeometry x="1010" y="155" width="60" height="80" as="geometry" />
        </mxCell>
        <mxCell id="_Fsv1PaaSxjBME8YJHm2-6" value="ESB" style="rounded=0;whiteSpace=wrap;html=1;fontFamily=Helvetica;fontSize=12;fontColor=#000000;align=center;strokeColor=#000000;fillColor=#ffffff;" parent="1" vertex="1">
          <mxGeometry x="220" y="300" width="670" height="70" as="geometry" />
        </mxCell>
        <mxCell id="_Fsv1PaaSxjBME8YJHm2-7" style="edgeStyle=orthogonalEdgeStyle;shape=flexArrow;rounded=0;orthogonalLoop=1;jettySize=auto;html=1;exitX=0;exitY=0.5;exitDx=0;exitDy=0;entryX=1;entryY=0.5;entryDx=0;entryDy=0;startArrow=block;startSize=3;endSize=3;strokeColor=#000000;fontSize=5;fillColor=#ffffff;" parent="1" source="_Fsv1PaaSxjBME8YJHm2-8" target="_Fsv1PaaSxjBME8YJHm2-4" edge="1">
          <mxGeometry relative="1" as="geometry" />
        </mxCell>
        <mxCell id="_Fsv1PaaSxjBME8YJHm2-8" value="Client Interaction service&amp;nbsp;" style="rounded=0;whiteSpace=wrap;html=1;" parent="1" vertex="1">
          <mxGeometry x="230" y="130" width="60" height="130" as="geometry" />
        </mxCell>
        <mxCell id="_Fsv1PaaSxjBME8YJHm2-9" value="Patient&lt;br&gt;handler&amp;nbsp;&lt;span style=&quot;color: rgba(0 , 0 , 0 , 0) ; font-family: monospace ; font-size: 0px ; white-space: nowrap&quot;&gt;%3CmxGraphModel%3E%3Croot%3E%3CmxCell%20id%3D%220%22%2F%3E%3CmxCell%20id%3D%221%22%20parent%3D%220%22%2F%3E%3CmxCell%20id%3D%222%22%20value%3D%22Client%20Interaction%20service%26amp%3Bnbsp%3B%22%20style%3D%22rounded%3D0%3BwhiteSpace%3Dwrap%3Bhtml%3D1%3B%22%20vertex%3D%221%22%20parent%3D%221%22%3E%3CmxGeometry%20x%3D%22230%22%20y%3D%22130%22%20width%3D%2260%22%20height%3D%22130%22%20as%3D%22geometry%22%2F%3E%3C%2FmxCell%3E%3C%2Froot%3E%3C%2FmxGraphModel%3E&lt;/span&gt;&lt;br&gt;Service" style="rounded=0;whiteSpace=wrap;html=1;" parent="1" vertex="1">
          <mxGeometry x="384" y="130" width="60" height="130" as="geometry" />
        </mxCell>
        <mxCell id="_Fsv1PaaSxjBME8YJHm2-11" style="edgeStyle=orthogonalEdgeStyle;shape=flexArrow;rounded=0;orthogonalLoop=1;jettySize=auto;html=1;exitX=0.5;exitY=1;exitDx=0;exitDy=0;startArrow=block;startSize=3;endSize=3;strokeColor=#000000;fontSize=5;" parent="1" source="_Fsv1PaaSxjBME8YJHm2-12" edge="1">
          <mxGeometry relative="1" as="geometry">
            <mxPoint x="555" y="300" as="targetPoint" />
            <Array as="points">
              <mxPoint x="555" y="280" />
              <mxPoint x="555" y="280" />
            </Array>
          </mxGeometry>
        </mxCell>
        <mxCell id="_Fsv1PaaSxjBME8YJHm2-12" value="Noise Removal&lt;br&gt;Service" style="rounded=0;whiteSpace=wrap;html=1;" parent="1" vertex="1">
          <mxGeometry x="525" y="130" width="60" height="130" as="geometry" />
        </mxCell>
        <mxCell id="_Fsv1PaaSxjBME8YJHm2-13" value="&lt;font style=&quot;font-size: 12px&quot;&gt;Models&lt;br&gt;Management Service&lt;/font&gt;" style="rounded=0;whiteSpace=wrap;html=1;" parent="1" vertex="1">
          <mxGeometry x="640" y="130" width="80" height="130" as="geometry" />
        </mxCell>
        <mxCell id="_Fsv1PaaSxjBME8YJHm2-15" style="edgeStyle=orthogonalEdgeStyle;shape=flexArrow;rounded=0;orthogonalLoop=1;jettySize=auto;html=1;exitX=1;exitY=0.5;exitDx=0;exitDy=0;entryX=0;entryY=0.5;entryDx=0;entryDy=0;startArrow=block;startSize=3;endSize=3;fontSize=5;fillColor=#ffffff;" parent="1" source="_Fsv1PaaSxjBME8YJHm2-16" target="_Fsv1PaaSxjBME8YJHm2-5" edge="1">
          <mxGeometry relative="1" as="geometry" />
        </mxCell>
        <mxCell id="_Fsv1PaaSxjBME8YJHm2-16" value="Database&amp;nbsp;&lt;br&gt;Service" style="rounded=0;whiteSpace=wrap;html=1;" parent="1" vertex="1">
          <mxGeometry x="767" y="130" width="60" height="130" as="geometry" />
        </mxCell>
        <mxCell id="_Fsv1PaaSxjBME8YJHm2-17" value="Security" style="rounded=0;whiteSpace=wrap;html=1;" parent="1" vertex="1">
          <mxGeometry x="230" y="290" width="70" height="40" as="geometry" />
        </mxCell>
        <mxCell id="_Fsv1PaaSxjBME8YJHm2-22" style="edgeStyle=orthogonalEdgeStyle;shape=flexArrow;rounded=0;orthogonalLoop=1;jettySize=auto;html=1;exitX=0.5;exitY=1;exitDx=0;exitDy=0;startArrow=block;startSize=3;endSize=3;strokeColor=#000000;fontSize=5;" parent="1" edge="1">
          <mxGeometry relative="1" as="geometry">
            <mxPoint x="679.8000000000002" y="260" as="sourcePoint" />
            <mxPoint x="679.8000000000002" y="300" as="targetPoint" />
          </mxGeometry>
        </mxCell>
        <mxCell id="_Fsv1PaaSxjBME8YJHm2-24" style="edgeStyle=orthogonalEdgeStyle;shape=flexArrow;rounded=0;orthogonalLoop=1;jettySize=auto;html=1;exitX=0.5;exitY=1;exitDx=0;exitDy=0;startArrow=block;startSize=3;endSize=3;strokeColor=#000000;fontSize=5;" parent="1" edge="1">
          <mxGeometry relative="1" as="geometry">
            <mxPoint x="414" y="260" as="sourcePoint" />
            <mxPoint x="414" y="300" as="targetPoint" />
          </mxGeometry>
        </mxCell>
        <mxCell id="_Fsv1PaaSxjBME8YJHm2-26" style="edgeStyle=orthogonalEdgeStyle;shape=flexArrow;rounded=0;orthogonalLoop=1;jettySize=auto;html=1;exitX=0.5;exitY=1;exitDx=0;exitDy=0;startArrow=block;startSize=3;endSize=3;strokeColor=#000000;fontSize=5;" parent="1" edge="1">
          <mxGeometry relative="1" as="geometry">
            <mxPoint x="259.8000000000002" y="260" as="sourcePoint" />
            <mxPoint x="260" y="290" as="targetPoint" />
          </mxGeometry>
        </mxCell>
        <mxCell id="_Fsv1PaaSxjBME8YJHm2-29" value="&lt;font style=&quot;font-size: 12px&quot;&gt;SOAP&lt;/font&gt;" style="text;html=1;strokeColor=none;fillColor=none;align=center;verticalAlign=middle;whiteSpace=wrap;rounded=0;fontSize=5;" parent="1" vertex="1">
          <mxGeometry x="860" y="270" width="40" height="20" as="geometry" />
        </mxCell>
        <mxCell id="_Fsv1PaaSxjBME8YJHm2-30" value="&lt;font style=&quot;font-size: 12px&quot;&gt;Https&lt;/font&gt;" style="text;html=1;strokeColor=none;fillColor=none;align=center;verticalAlign=middle;whiteSpace=wrap;rounded=0;fontSize=5;" parent="1" vertex="1">
          <mxGeometry x="120" y="165" width="40" height="20" as="geometry" />
        </mxCell>
        <mxCell id="_Fsv1PaaSxjBME8YJHm2-31" value="&lt;font style=&quot;font-size: 12px&quot;&gt;Vikruti Prediction&lt;/font&gt;" style="text;html=1;strokeColor=none;fillColor=none;align=center;verticalAlign=middle;whiteSpace=wrap;rounded=0;fontSize=5;" parent="1" vertex="1">
          <mxGeometry x="460" y="80" width="180" height="20" as="geometry" />
        </mxCell>
        <mxCell id="_Fsv1PaaSxjBME8YJHm2-33" value="" style="endArrow=none;dashed=1;html=1;strokeColor=#000000;fillColor=#ffffff;fontSize=5;" parent="1" edge="1">
          <mxGeometry width="50" height="50" relative="1" as="geometry">
            <mxPoint x="360" y="940.0000000000005" as="sourcePoint" />
            <mxPoint x="450" y="940.0000000000005" as="targetPoint" />
          </mxGeometry>
        </mxCell>
        <mxCell id="_Fsv1PaaSxjBME8YJHm2-34" style="edgeStyle=orthogonalEdgeStyle;shape=flexArrow;rounded=0;orthogonalLoop=1;jettySize=auto;html=1;exitX=0.5;exitY=1;exitDx=0;exitDy=0;startArrow=block;startSize=3;endSize=3;strokeColor=#000000;fontSize=5;" parent="1" edge="1">
          <mxGeometry relative="1" as="geometry">
            <mxPoint x="796.8800000000001" y="260" as="sourcePoint" />
            <mxPoint x="796.8800000000001" y="300" as="targetPoint" />
          </mxGeometry>
        </mxCell>
      </root>
    </mxGraphModel>
  </diagram>
  <diagram id="Jjr-O26_KaEJ_ZwO37IG" name="ER diagram">
    <mxGraphModel dx="1940" dy="646" grid="1" gridSize="10" guides="1" tooltips="1" connect="1" arrows="1" fold="1" page="1" pageScale="1" pageWidth="850" pageHeight="1100" math="0" shadow="0">
      <root>
        <mxCell id="96ooV01cmaEPRn1zzvbZ-0" />
        <mxCell id="96ooV01cmaEPRn1zzvbZ-1" parent="96ooV01cmaEPRn1zzvbZ-0" />
        <mxCell id="96ooV01cmaEPRn1zzvbZ-20" style="edgeStyle=orthogonalEdgeStyle;rounded=0;orthogonalLoop=1;jettySize=auto;html=1;exitX=0.5;exitY=1;exitDx=0;exitDy=0;endArrow=none;endFill=0;" edge="1" parent="96ooV01cmaEPRn1zzvbZ-1" source="96ooV01cmaEPRn1zzvbZ-2" target="96ooV01cmaEPRn1zzvbZ-6">
          <mxGeometry relative="1" as="geometry" />
        </mxCell>
        <mxCell id="96ooV01cmaEPRn1zzvbZ-21" style="edgeStyle=orthogonalEdgeStyle;rounded=0;orthogonalLoop=1;jettySize=auto;html=1;exitX=1;exitY=0.5;exitDx=0;exitDy=0;entryX=0;entryY=0.5;entryDx=0;entryDy=0;endArrow=none;endFill=0;" edge="1" parent="96ooV01cmaEPRn1zzvbZ-1" source="96ooV01cmaEPRn1zzvbZ-2" target="96ooV01cmaEPRn1zzvbZ-5">
          <mxGeometry relative="1" as="geometry" />
        </mxCell>
        <mxCell id="96ooV01cmaEPRn1zzvbZ-26" style="edgeStyle=orthogonalEdgeStyle;rounded=0;orthogonalLoop=1;jettySize=auto;html=1;exitX=0;exitY=0.5;exitDx=0;exitDy=0;entryX=1;entryY=0.5;entryDx=0;entryDy=0;endArrow=none;endFill=0;" edge="1" parent="96ooV01cmaEPRn1zzvbZ-1" source="96ooV01cmaEPRn1zzvbZ-2" target="96ooV01cmaEPRn1zzvbZ-11">
          <mxGeometry relative="1" as="geometry" />
        </mxCell>
        <mxCell id="96ooV01cmaEPRn1zzvbZ-27" style="edgeStyle=orthogonalEdgeStyle;rounded=0;orthogonalLoop=1;jettySize=auto;html=1;exitX=0.75;exitY=0;exitDx=0;exitDy=0;endArrow=none;endFill=0;" edge="1" parent="96ooV01cmaEPRn1zzvbZ-1" source="96ooV01cmaEPRn1zzvbZ-2" target="96ooV01cmaEPRn1zzvbZ-8">
          <mxGeometry relative="1" as="geometry">
            <Array as="points">
              <mxPoint x="240" y="180" />
            </Array>
          </mxGeometry>
        </mxCell>
        <mxCell id="96ooV01cmaEPRn1zzvbZ-28" style="edgeStyle=orthogonalEdgeStyle;rounded=0;orthogonalLoop=1;jettySize=auto;html=1;exitX=0.25;exitY=0;exitDx=0;exitDy=0;entryX=0.5;entryY=1;entryDx=0;entryDy=0;endArrow=none;endFill=0;" edge="1" parent="96ooV01cmaEPRn1zzvbZ-1" source="96ooV01cmaEPRn1zzvbZ-2" target="96ooV01cmaEPRn1zzvbZ-9">
          <mxGeometry relative="1" as="geometry" />
        </mxCell>
        <mxCell id="96ooV01cmaEPRn1zzvbZ-29" style="edgeStyle=orthogonalEdgeStyle;rounded=0;orthogonalLoop=1;jettySize=auto;html=1;exitX=0.25;exitY=0;exitDx=0;exitDy=0;entryX=0.5;entryY=1;entryDx=0;entryDy=0;endArrow=none;endFill=0;" edge="1" parent="96ooV01cmaEPRn1zzvbZ-1" source="96ooV01cmaEPRn1zzvbZ-2" target="96ooV01cmaEPRn1zzvbZ-10">
          <mxGeometry relative="1" as="geometry">
            <Array as="points">
              <mxPoint x="50" y="180" />
            </Array>
          </mxGeometry>
        </mxCell>
        <mxCell id="96ooV01cmaEPRn1zzvbZ-43" style="edgeStyle=orthogonalEdgeStyle;rounded=0;orthogonalLoop=1;jettySize=auto;html=1;exitX=0.25;exitY=1;exitDx=0;exitDy=0;entryX=1;entryY=0.5;entryDx=0;entryDy=0;endArrow=none;endFill=0;" edge="1" parent="96ooV01cmaEPRn1zzvbZ-1" source="96ooV01cmaEPRn1zzvbZ-2" target="96ooV01cmaEPRn1zzvbZ-41">
          <mxGeometry relative="1" as="geometry" />
        </mxCell>
        <mxCell id="96ooV01cmaEPRn1zzvbZ-44" style="edgeStyle=orthogonalEdgeStyle;rounded=0;orthogonalLoop=1;jettySize=auto;html=1;exitX=1;exitY=0.25;exitDx=0;exitDy=0;entryX=0.5;entryY=1;entryDx=0;entryDy=0;endArrow=none;endFill=0;" edge="1" parent="96ooV01cmaEPRn1zzvbZ-1" source="96ooV01cmaEPRn1zzvbZ-2" target="96ooV01cmaEPRn1zzvbZ-38">
          <mxGeometry relative="1" as="geometry" />
        </mxCell>
        <mxCell id="96ooV01cmaEPRn1zzvbZ-2" value="USER" style="rounded=0;whiteSpace=wrap;html=1;" vertex="1" parent="96ooV01cmaEPRn1zzvbZ-1">
          <mxGeometry x="110" y="180" width="120" height="60" as="geometry" />
        </mxCell>
        <mxCell id="96ooV01cmaEPRn1zzvbZ-23" style="edgeStyle=orthogonalEdgeStyle;rounded=0;orthogonalLoop=1;jettySize=auto;html=1;exitX=0.5;exitY=1;exitDx=0;exitDy=0;entryX=0.5;entryY=0;entryDx=0;entryDy=0;endArrow=none;endFill=0;" edge="1" parent="96ooV01cmaEPRn1zzvbZ-1" source="96ooV01cmaEPRn1zzvbZ-3" target="96ooV01cmaEPRn1zzvbZ-7">
          <mxGeometry relative="1" as="geometry" />
        </mxCell>
        <mxCell id="96ooV01cmaEPRn1zzvbZ-34" style="edgeStyle=orthogonalEdgeStyle;rounded=0;orthogonalLoop=1;jettySize=auto;html=1;exitX=0.75;exitY=0;exitDx=0;exitDy=0;entryX=0.5;entryY=1;entryDx=0;entryDy=0;endArrow=none;endFill=0;" edge="1" parent="96ooV01cmaEPRn1zzvbZ-1" source="96ooV01cmaEPRn1zzvbZ-3" target="96ooV01cmaEPRn1zzvbZ-16">
          <mxGeometry relative="1" as="geometry" />
        </mxCell>
        <mxCell id="96ooV01cmaEPRn1zzvbZ-35" style="edgeStyle=orthogonalEdgeStyle;rounded=0;orthogonalLoop=1;jettySize=auto;html=1;exitX=0.5;exitY=0;exitDx=0;exitDy=0;endArrow=none;endFill=0;" edge="1" parent="96ooV01cmaEPRn1zzvbZ-1" source="96ooV01cmaEPRn1zzvbZ-3" target="96ooV01cmaEPRn1zzvbZ-17">
          <mxGeometry relative="1" as="geometry">
            <Array as="points">
              <mxPoint x="780" y="180" />
            </Array>
          </mxGeometry>
        </mxCell>
        <mxCell id="96ooV01cmaEPRn1zzvbZ-36" style="edgeStyle=orthogonalEdgeStyle;rounded=0;orthogonalLoop=1;jettySize=auto;html=1;exitX=1;exitY=0.25;exitDx=0;exitDy=0;endArrow=none;endFill=0;" edge="1" parent="96ooV01cmaEPRn1zzvbZ-1" source="96ooV01cmaEPRn1zzvbZ-3" target="96ooV01cmaEPRn1zzvbZ-18">
          <mxGeometry relative="1" as="geometry" />
        </mxCell>
        <mxCell id="96ooV01cmaEPRn1zzvbZ-37" style="edgeStyle=orthogonalEdgeStyle;rounded=0;orthogonalLoop=1;jettySize=auto;html=1;exitX=1;exitY=0.75;exitDx=0;exitDy=0;endArrow=none;endFill=0;" edge="1" parent="96ooV01cmaEPRn1zzvbZ-1" source="96ooV01cmaEPRn1zzvbZ-3" target="96ooV01cmaEPRn1zzvbZ-19">
          <mxGeometry relative="1" as="geometry" />
        </mxCell>
        <mxCell id="96ooV01cmaEPRn1zzvbZ-3" value="VIKRUTI" style="rounded=0;whiteSpace=wrap;html=1;" vertex="1" parent="96ooV01cmaEPRn1zzvbZ-1">
          <mxGeometry x="610" y="180" width="120" height="60" as="geometry" />
        </mxCell>
        <mxCell id="96ooV01cmaEPRn1zzvbZ-30" style="edgeStyle=orthogonalEdgeStyle;rounded=0;orthogonalLoop=1;jettySize=auto;html=1;exitX=0;exitY=1;exitDx=0;exitDy=0;entryX=0.5;entryY=0;entryDx=0;entryDy=0;endArrow=none;endFill=0;" edge="1" parent="96ooV01cmaEPRn1zzvbZ-1" source="96ooV01cmaEPRn1zzvbZ-4" target="96ooV01cmaEPRn1zzvbZ-12">
          <mxGeometry relative="1" as="geometry">
            <Array as="points">
              <mxPoint x="260" y="490" />
            </Array>
          </mxGeometry>
        </mxCell>
        <mxCell id="96ooV01cmaEPRn1zzvbZ-31" style="edgeStyle=orthogonalEdgeStyle;rounded=0;orthogonalLoop=1;jettySize=auto;html=1;exitX=0.25;exitY=1;exitDx=0;exitDy=0;endArrow=none;endFill=0;" edge="1" parent="96ooV01cmaEPRn1zzvbZ-1" source="96ooV01cmaEPRn1zzvbZ-4" target="96ooV01cmaEPRn1zzvbZ-13">
          <mxGeometry relative="1" as="geometry">
            <Array as="points">
              <mxPoint x="380" y="490" />
            </Array>
          </mxGeometry>
        </mxCell>
        <mxCell id="96ooV01cmaEPRn1zzvbZ-32" style="edgeStyle=orthogonalEdgeStyle;rounded=0;orthogonalLoop=1;jettySize=auto;html=1;exitX=0.5;exitY=1;exitDx=0;exitDy=0;entryX=0.5;entryY=0;entryDx=0;entryDy=0;endArrow=none;endFill=0;" edge="1" parent="96ooV01cmaEPRn1zzvbZ-1" source="96ooV01cmaEPRn1zzvbZ-4" target="96ooV01cmaEPRn1zzvbZ-14">
          <mxGeometry relative="1" as="geometry" />
        </mxCell>
        <mxCell id="96ooV01cmaEPRn1zzvbZ-33" style="edgeStyle=orthogonalEdgeStyle;rounded=0;orthogonalLoop=1;jettySize=auto;html=1;exitX=0.75;exitY=1;exitDx=0;exitDy=0;endArrow=none;endFill=0;" edge="1" parent="96ooV01cmaEPRn1zzvbZ-1" source="96ooV01cmaEPRn1zzvbZ-4" target="96ooV01cmaEPRn1zzvbZ-15">
          <mxGeometry relative="1" as="geometry" />
        </mxCell>
        <mxCell id="96ooV01cmaEPRn1zzvbZ-4" value="SIGNAL" style="rounded=0;whiteSpace=wrap;html=1;" vertex="1" parent="96ooV01cmaEPRn1zzvbZ-1">
          <mxGeometry x="330" y="430" width="120" height="60" as="geometry" />
        </mxCell>
        <mxCell id="96ooV01cmaEPRn1zzvbZ-22" style="edgeStyle=orthogonalEdgeStyle;rounded=0;orthogonalLoop=1;jettySize=auto;html=1;exitX=1;exitY=0.5;exitDx=0;exitDy=0;entryX=0;entryY=0.5;entryDx=0;entryDy=0;endArrow=none;endFill=0;" edge="1" parent="96ooV01cmaEPRn1zzvbZ-1" source="96ooV01cmaEPRn1zzvbZ-5" target="96ooV01cmaEPRn1zzvbZ-3">
          <mxGeometry relative="1" as="geometry" />
        </mxCell>
        <mxCell id="96ooV01cmaEPRn1zzvbZ-5" value="HAS" style="rhombus;whiteSpace=wrap;html=1;" vertex="1" parent="96ooV01cmaEPRn1zzvbZ-1">
          <mxGeometry x="385" y="170" width="80" height="80" as="geometry" />
        </mxCell>
        <mxCell id="96ooV01cmaEPRn1zzvbZ-25" style="edgeStyle=orthogonalEdgeStyle;rounded=0;orthogonalLoop=1;jettySize=auto;html=1;exitX=0.5;exitY=1;exitDx=0;exitDy=0;entryX=0;entryY=0.5;entryDx=0;entryDy=0;endArrow=none;endFill=0;" edge="1" parent="96ooV01cmaEPRn1zzvbZ-1" source="96ooV01cmaEPRn1zzvbZ-6" target="96ooV01cmaEPRn1zzvbZ-4">
          <mxGeometry relative="1" as="geometry" />
        </mxCell>
        <mxCell id="96ooV01cmaEPRn1zzvbZ-6" value="SUBMITS" style="rhombus;whiteSpace=wrap;html=1;" vertex="1" parent="96ooV01cmaEPRn1zzvbZ-1">
          <mxGeometry x="130" y="320" width="80" height="80" as="geometry" />
        </mxCell>
        <mxCell id="96ooV01cmaEPRn1zzvbZ-24" style="edgeStyle=orthogonalEdgeStyle;rounded=0;orthogonalLoop=1;jettySize=auto;html=1;exitX=0.5;exitY=1;exitDx=0;exitDy=0;entryX=1;entryY=0.5;entryDx=0;entryDy=0;endArrow=none;endFill=0;" edge="1" parent="96ooV01cmaEPRn1zzvbZ-1" source="96ooV01cmaEPRn1zzvbZ-7" target="96ooV01cmaEPRn1zzvbZ-4">
          <mxGeometry relative="1" as="geometry" />
        </mxCell>
        <mxCell id="96ooV01cmaEPRn1zzvbZ-7" value="&lt;font style=&quot;font-size: 10px&quot;&gt;CALCULATED FROM&lt;/font&gt;" style="rhombus;whiteSpace=wrap;html=1;" vertex="1" parent="96ooV01cmaEPRn1zzvbZ-1">
          <mxGeometry x="630" y="320" width="80" height="80" as="geometry" />
        </mxCell>
        <mxCell id="96ooV01cmaEPRn1zzvbZ-8" value="USERNAME" style="ellipse;whiteSpace=wrap;html=1;" vertex="1" parent="96ooV01cmaEPRn1zzvbZ-1">
          <mxGeometry x="200" y="60" width="80" height="50" as="geometry" />
        </mxCell>
        <mxCell id="96ooV01cmaEPRn1zzvbZ-9" value="WEIGHT" style="ellipse;whiteSpace=wrap;html=1;" vertex="1" parent="96ooV01cmaEPRn1zzvbZ-1">
          <mxGeometry x="100" y="60" width="80" height="50" as="geometry" />
        </mxCell>
        <mxCell id="96ooV01cmaEPRn1zzvbZ-10" value="HEIGHT" style="ellipse;whiteSpace=wrap;html=1;" vertex="1" parent="96ooV01cmaEPRn1zzvbZ-1">
          <mxGeometry x="10" y="90" width="80" height="50" as="geometry" />
        </mxCell>
        <mxCell id="96ooV01cmaEPRn1zzvbZ-11" value="AGE" style="ellipse;whiteSpace=wrap;html=1;" vertex="1" parent="96ooV01cmaEPRn1zzvbZ-1">
          <mxGeometry x="-70" y="185" width="80" height="50" as="geometry" />
        </mxCell>
        <mxCell id="96ooV01cmaEPRn1zzvbZ-12" value="FILE_ID" style="ellipse;whiteSpace=wrap;html=1;" vertex="1" parent="96ooV01cmaEPRn1zzvbZ-1">
          <mxGeometry x="220" y="570" width="80" height="50" as="geometry" />
        </mxCell>
        <mxCell id="96ooV01cmaEPRn1zzvbZ-13" value="TIME INSTANT" style="ellipse;whiteSpace=wrap;html=1;" vertex="1" parent="96ooV01cmaEPRn1zzvbZ-1">
          <mxGeometry x="340" y="570" width="80" height="50" as="geometry" />
        </mxCell>
        <mxCell id="96ooV01cmaEPRn1zzvbZ-14" value="LENGTH/&lt;br&gt;DURATION" style="ellipse;whiteSpace=wrap;html=1;" vertex="1" parent="96ooV01cmaEPRn1zzvbZ-1">
          <mxGeometry x="470" y="570" width="80" height="50" as="geometry" />
        </mxCell>
        <mxCell id="96ooV01cmaEPRn1zzvbZ-15" value="&lt;u&gt;DID&lt;/u&gt;" style="ellipse;whiteSpace=wrap;html=1;" vertex="1" parent="96ooV01cmaEPRn1zzvbZ-1">
          <mxGeometry x="590" y="530" width="80" height="50" as="geometry" />
        </mxCell>
        <mxCell id="96ooV01cmaEPRn1zzvbZ-16" value="TIME" style="ellipse;whiteSpace=wrap;html=1;" vertex="1" parent="96ooV01cmaEPRn1zzvbZ-1">
          <mxGeometry x="660" y="70" width="80" height="50" as="geometry" />
        </mxCell>
        <mxCell id="96ooV01cmaEPRn1zzvbZ-17" value="P" style="ellipse;whiteSpace=wrap;html=1;" vertex="1" parent="96ooV01cmaEPRn1zzvbZ-1">
          <mxGeometry x="740" y="80" width="80" height="50" as="geometry" />
        </mxCell>
        <mxCell id="96ooV01cmaEPRn1zzvbZ-18" value="V" style="ellipse;whiteSpace=wrap;html=1;" vertex="1" parent="96ooV01cmaEPRn1zzvbZ-1">
          <mxGeometry x="810" y="170" width="80" height="50" as="geometry" />
        </mxCell>
        <mxCell id="96ooV01cmaEPRn1zzvbZ-19" value="K" style="ellipse;whiteSpace=wrap;html=1;" vertex="1" parent="96ooV01cmaEPRn1zzvbZ-1">
          <mxGeometry x="770" y="255" width="80" height="50" as="geometry" />
        </mxCell>
        <mxCell id="96ooV01cmaEPRn1zzvbZ-38" value="PASSWORD" style="ellipse;whiteSpace=wrap;html=1;" vertex="1" parent="96ooV01cmaEPRn1zzvbZ-1">
          <mxGeometry x="290" y="70" width="80" height="50" as="geometry" />
        </mxCell>
        <mxCell id="96ooV01cmaEPRn1zzvbZ-42" style="edgeStyle=orthogonalEdgeStyle;rounded=0;orthogonalLoop=1;jettySize=auto;html=1;exitX=1;exitY=0.5;exitDx=0;exitDy=0;entryX=0;entryY=0.75;entryDx=0;entryDy=0;endArrow=none;endFill=0;" edge="1" parent="96ooV01cmaEPRn1zzvbZ-1" source="96ooV01cmaEPRn1zzvbZ-39" target="96ooV01cmaEPRn1zzvbZ-2">
          <mxGeometry relative="1" as="geometry">
            <Array as="points">
              <mxPoint x="110" y="265" />
            </Array>
          </mxGeometry>
        </mxCell>
        <mxCell id="96ooV01cmaEPRn1zzvbZ-39" value="&lt;u&gt;UID&lt;/u&gt;" style="ellipse;whiteSpace=wrap;html=1;" vertex="1" parent="96ooV01cmaEPRn1zzvbZ-1">
          <mxGeometry x="-70" y="240" width="80" height="50" as="geometry" />
        </mxCell>
        <mxCell id="96ooV01cmaEPRn1zzvbZ-40" value="PHONE&lt;br&gt;NUMER" style="ellipse;whiteSpace=wrap;html=1;" vertex="1" parent="96ooV01cmaEPRn1zzvbZ-1">
          <mxGeometry x="-70" y="310" width="80" height="50" as="geometry" />
        </mxCell>
        <mxCell id="96ooV01cmaEPRn1zzvbZ-41" value="" style="ellipse;whiteSpace=wrap;html=1;fillColor=none;" vertex="1" parent="96ooV01cmaEPRn1zzvbZ-1">
          <mxGeometry x="-75" y="305" width="90" height="60" as="geometry" />
        </mxCell>
        <mxCell id="96ooV01cmaEPRn1zzvbZ-46" style="edgeStyle=orthogonalEdgeStyle;rounded=0;orthogonalLoop=1;jettySize=auto;html=1;exitX=0.5;exitY=1;exitDx=0;exitDy=0;entryX=0.5;entryY=0;entryDx=0;entryDy=0;endArrow=none;endFill=0;" edge="1" parent="96ooV01cmaEPRn1zzvbZ-1" source="96ooV01cmaEPRn1zzvbZ-45" target="96ooV01cmaEPRn1zzvbZ-3">
          <mxGeometry relative="1" as="geometry">
            <Array as="points">
              <mxPoint x="610" y="160" />
              <mxPoint x="670" y="160" />
            </Array>
          </mxGeometry>
        </mxCell>
        <mxCell id="96ooV01cmaEPRn1zzvbZ-45" value="&lt;u&gt;VID&lt;/u&gt;" style="ellipse;whiteSpace=wrap;html=1;" vertex="1" parent="96ooV01cmaEPRn1zzvbZ-1">
          <mxGeometry x="570" y="70" width="80" height="50" as="geometry" />
        </mxCell>
      </root>
    </mxGraphModel>
  </diagram>
</mxfile>
